cover 
http://static.cinemarx.ro/poze/filme-mari/2010/07/The_Social_Network_1278785076_2010.jpg

Genre:Biography | Drama | History
Language:English
IMDb:http://www.imdb.com/title/tt1285016/
Source:VOBS SCR Thx!

General
Complete name :The.Social.Network.2010.DvDScr.XviD.Feel-Free.avi
Format : AVI
Format/Info : Audio Video Interleave
File size : 1.07 GiB
Duration : 2h 0mn
Overall bit rate : 1 277 Kbps
Video #0
Codec ID : XVID
Codec ID/Hint : XviD
Duration : 2h 0mn
Bit rate : 1 123 Kbps
Width : 720 pixels
Height : 304 pixels
Display aspect ratio : 2.35:1
Frame rate : 23.976 fps
Resolution : 24 bits
Colorimetry : 4:2:0
Scan type : Progressive
Bits/(Pixel*Frame) : 0.214
Stream size : 968 MiB (88%)
Writing library : XviD 1.2.1 (UTC 2008-12-04)
Audio #1
ID : 1
Format : MPEG Audio
Format version : Version 1
Format profile : Layer 3
Codec ID : 55
Codec ID/Hint : MP3
Duration : 2h 0mn
Bit rate mode : Variable
Bit rate : 141 Kbps
Channel(s) : 2 channels
Sampling rate : 48.0 KHz
Resolution : 16 bits
Stream size : 121 MiB (11%)
Alignment : Aligned on interleaves
Interleave, duration : 24 ms (0.58 video frame)
Interleave, preload duration : 130 ms
Writing library : LAME3.90.

Plot:
A story about the founders of the social-networking website, Facebook.

screens 
http://img836.imageshack.us/img836/2138/thesocialnetwork2010dvd.jpg 
http://img263.imageshack.us/img263/2138/thesocialnetwork2010dvd.jpg 
http://img198.imageshack.us/img198/2138/thesocialnetwork2010dvd.jpg 
http://img340.imageshack.us/img340/2138/thesocialnetwork2010dvd.jpg